<?xml version="1.0" encoding="iso-8859-1"?>
<!-- Generator: Adobe Illustrator 19.0.0, SVG Export Plug-In . SVG Version: 6.00 Build 0)  -->
<svg version="1.1" id="Layer_1" xmlns="http://www.w3.org/2000/svg" xmlns:xlink="http://www.w3.org/1999/xlink" x="0px" y="0px"
	 viewBox="0 0 504 504" style="enable-background:new 0 0 504 504;" xml:space="preserve">
<g>
	<circle style="fill:#4BB19B;" cx="35.6" cy="437.2" r="31.6"/>
	<circle style="fill:#4BB19B;" cx="35.6" cy="248" r="31.6"/>
	<circle style="fill:#4BB19B;" cx="35.6" cy="66.8" r="31.6"/>
</g>
<path d="M368,62H120c-2.4,0-4-1.6-4-4s1.6-4,4-4h248c2.4,0,4,1.6,4,4S370.4,62,368,62z"/>
<path d="M500,94H328c-2.4,0-4-1.6-4-4s1.6-4,4-4h172c2.4,0,4,1.6,4,4S502.4,94,500,94z"/>
<path d="M284,94H120c-2.4,0-4-1.6-4-4s1.6-4,4-4h164c2.4,0,4,1.6,4,4S286.4,94,284,94z"/>
<path d="M316,242H120c-2.4,0-4-1.6-4-4s1.6-4,4-4h196c2.4,0,4,1.6,4,4S318.4,242,316,242z"/>
<path d="M404,242h-48c-2.4,0-4-1.6-4-4s1.6-4,4-4h48c2.4,0,4,1.6,4,4S406.4,242,404,242z"/>
<path d="M500,274H264c-2.4,0-4-1.6-4-4s1.6-4,4-4h236c2.4,0,4,1.6,4,4S502.4,274,500,274z"/>
<path d="M220,274H120c-2.4,0-4-1.6-4-4s1.6-4,4-4h100c2.4,0,4,1.6,4,4S222.4,274,220,274z"/>
<path d="M368,426H120c-2.4,0-4-1.6-4-4s1.6-4,4-4h248c2.4,0,4,1.6,4,4S370.4,426,368,426z"/>
<path d="M500,458H328c-2.4,0-4-1.6-4-4s1.6-4,4-4h172c2.4,0,4,1.6,4,4S502.4,458,500,458z"/>
<path d="M284,458H120c-2.4,0-4-1.6-4-4s1.6-4,4-4h164c2.4,0,4,1.6,4,4S286.4,458,284,458z"/>
<path d="M35.6,472.8C16,472.8,0,456.8,0,437.2s16-35.6,35.6-35.6s35.6,16,35.6,35.6S55.2,472.8,35.6,472.8z M35.6,409.6
	C20.4,409.6,8,422,8,437.2s12.4,27.6,27.6,27.6s27.6-12.4,27.6-27.6C63.2,422,50.8,409.6,35.6,409.6z"/>
<path d="M35.6,283.6C16,283.6,0,267.6,0,248s16-35.6,35.6-35.6s35.6,16,35.6,35.6C71.2,267.6,55.2,283.6,35.6,283.6z M35.6,220.4
	C20.4,220.4,8,232.8,8,248s12.4,27.6,27.6,27.6s27.6-12.4,27.6-27.6C63.2,232.8,50.8,220.4,35.6,220.4z"/>
<path d="M35.6,102.4C16,102.4,0,86.4,0,66.8s16-35.6,35.6-35.6s35.6,16,35.6,35.6C71.2,86.4,55.2,102.4,35.6,102.4z M35.6,39.2
	C20.4,39.2,8,51.6,8,66.8s12.4,27.6,27.6,27.6S63.2,82,63.2,66.8S50.8,39.2,35.6,39.2z"/>
<g>
</g>
<g>
</g>
<g>
</g>
<g>
</g>
<g>
</g>
<g>
</g>
<g>
</g>
<g>
</g>
<g>
</g>
<g>
</g>
<g>
</g>
<g>
</g>
<g>
</g>
<g>
</g>
<g>
</g>
</svg>
